<?xml version="1.0" encoding="UTF-8" standalone="no"?>
<svg
   xmlns:dc="http://purl.org/dc/elements/1.1/"
   xmlns:cc="http://creativecommons.org/ns#"
   xmlns:rdf="http://www.w3.org/1999/02/22-rdf-syntax-ns#"
   xmlns:svg="http://www.w3.org/2000/svg"
   xmlns="http://www.w3.org/2000/svg"
   xmlns:sodipodi="http://sodipodi.sourceforge.net/DTD/sodipodi-0.dtd"
   xmlns:inkscape="http://www.inkscape.org/namespaces/inkscape"
   id="Layer_1"
   data-name="Layer 1"
   viewBox="0 0 158.2 165.67"
   version="1.1"
   sodipodi:docname="icon.svg"
   inkscape:version="1.0.1 (3bc2e813f5, 2020-09-07)">
  <metadata
     id="metadata134">
    <rdf:RDF>
      <cc:Work
         rdf:about="">
        <dc:format>image/svg+xml</dc:format>
        <dc:type
           rdf:resource="http://purl.org/dc/dcmitype/StillImage" />
      </cc:Work>
    </rdf:RDF>
  </metadata>
  <sodipodi:namedview
     pagecolor="#ffffff"
     bordercolor="#666666"
     borderopacity="1"
     objecttolerance="10"
     gridtolerance="10"
     guidetolerance="10"
     inkscape:pageopacity="0"
     inkscape:pageshadow="2"
     inkscape:window-width="1774"
     inkscape:window-height="1155"
     id="namedview132"
     showgrid="false"
     inkscape:zoom="6.0843846"
     inkscape:cx="79.1"
     inkscape:cy="69.686587"
     inkscape:window-x="72"
     inkscape:window-y="27"
     inkscape:window-maximized="0"
     inkscape:current-layer="Layer_1" />
  <defs
     id="defs93">
    <style
       id="style91">.cls-1{fill:#ad1b33;}.cls-2{fill:#fff;}</style>
  </defs>
  <title
     id="title95">Artboard 1</title>
  <path
     class="cls-2"
     d="M15.91,103.4c-1.13,0-1.41,0-2.62,0l-.12.13c.1,2.64.13,5.31.13,8v1.19a9.33,9.33,0,0,0,.53,4.1c1.26,2.71,4.33,2.73,5.22,2.73a5.92,5.92,0,0,0,4.61-1.77c1.18-1.39,1.21-3.07,1.21-5.26v-2.37c0-.78,0-1.57,0-2.35,0-2.6,0-3.45,0-4.26l-.12-.13c-.78,0-1.08,0-2.19,0l-.15.13c.1,2.58.1,5.15.1,7.71s0,3.83-.43,4.75a2.87,2.87,0,0,1-2.85,1.7,2.87,2.87,0,0,1-2.95-1.9,16.47,16.47,0,0,1-.33-4.41c0-2.29,0-5.69.08-7.88Z"
     id="path99"
     style="fill:#000000" />
  <path
     class="cls-2"
     d="M146.44,119.13c-.1-.34-.58-1.75-.68-2-.18-.52-.35-1.1-1.29-4.1L143,108.33c-.5-1.59-.83-2.58-1.46-4.77l-.18-.13c-1.41,0-1.79,0-3.1,0l-.15.11c-.15.45-.73,2.35-.86,2.75-.23.76-.48,1.5-.73,2.26l-1.81,5.67c-.5,1.59-.76,2.42-1.61,4.91l.13.13c1.11,0,1.36,0,2.34,0l.18-.13c.25-1.14.35-1.5,1.06-4l.23-.76h5.24c.5,1.72.76,2.78,1.16,4.35,0,.13.08.27.1.43l.18.11c1.11,0,1.51,0,2.6-.07Zm-9-6.43,1-3.49c.38-1.25.68-2.31,1.13-3.92.43,1.43.5,1.77,1.11,3.88l1,3.52C140.57,112.72,138.35,112.72,137.47,112.7Z"
     id="path101"
     style="fill:#000000" />
  <path
     class="cls-2"
     d="M27.47,127.77l.26-.23c0-.81,0-1,.13-1.7l-.26-.19c-1.3,0-4.78.08-6.52.08l-7.35,0-.22.19c.13,2.71.17,4.95.22,5.53.09,3.75.17,12.56.17,15.61,0,.85,0,3.28-.09,5.87l.26.19c3.35-.08,4.26-.08,6.74-.08h7l.26-.23c0-.89,0-.93.13-1.74l-.26-.23c-3.17.16-5,.19-7.82.23h-3.3c-.13-4.87-.13-6.07-.17-11.28l3.57,0c2.22,0,4.43,0,6.61.08l.35-.23a9.12,9.12,0,0,1,.13-1.62l-.3-.23c-3,.08-3.35.12-6.7.12h-3.7c0-5,0-5.6-.09-10.16h2.65C20.82,127.66,24.17,127.69,27.47,127.77Z"
     id="path103"
     style="fill:#000000" />
  <path
     class="cls-2"
     d="M142.63,153.08c1.13-.08,1.52-.08,2.65-.08l.26-.23c-.26-7.38-.35-10.09-.35-19.36,0-2.51,0-5,0-7.54l-.26-.23c-1.22.08-1.56.08-2.7.08l-.22.23c.09,1.78.17,3.59.22,5.37.09,3.36.17,13,.17,15.42,0,2.67,0,3.17-.09,6.11Z"
     id="path105"
     style="fill:#000000" />
  <path
     class="cls-2"
     d="M111.73,139.6c0,7.38,4.43,13.87,13.52,13.87a21,21,0,0,0,7.48-1.35l.26-.31c0-2.16,0-4.29,0-6.45q0-2.49.13-5l-.22-.23c-1.13,0-1.44.08-2.48.08l-.22.19c0,1.43.09,3,.09,4.71s0,3.63,0,5.45a12.59,12.59,0,0,1-4.87.93c-6.78,0-10.69-5.14-10.69-12.17,0-3.55,1.26-12.05,10.82-12.05a9.58,9.58,0,0,1,6.13,1.85l.3-.08c0-.27,0-.58,0-.89,0-.46.13-.89.18-1.35l-.13-.31a16.91,16.91,0,0,0-6.61-1.28C115.12,125.22,111.73,133.14,111.73,139.6Z"
     id="path107"
     style="fill:#000000" />
  <path
     class="cls-2"
     d="M124.29,103.4c-1.13,0-1.41,0-2.57,0l-.15.13c.13,2.55.18,9.83.18,11.69,0,1.14,0,2.44,0,3.92l.15.11c1.06,0,1.44,0,2.62,0H128c1,0,1.46,0,2,0l.15-.13c0-.81,0-1,.1-1.7l-.15-.13c-1.46.11-3,.11-4.46.13h-1.16c-.05-.72-.05-1-.05-2.22s0-6,0-7c0-1.54,0-3.11.05-4.68Z"
     id="path109"
     style="fill:#000000" />
  <path
     class="cls-2"
     d="M47.81,119.33c1.46,0,1.64,0,3.2,0,2.6,0,5.72,0,7.61-3.07a9.83,9.83,0,0,0,1.29-5.31c0-7.48-5.29-7.48-7.61-7.48l-4.66,0-.13.13c.05,1,.1,2,.13,3.43,0,1.77.08,7.12.08,8.58,0,1.7,0,2.46-.05,3.58Zm2.49-14.09,1.69,0a6.51,6.51,0,0,1,2.95.45c1.49.74,2.22,2.37,2.22,5.15,0,1.75-.23,4.59-2.09,5.89a5.17,5.17,0,0,1-3.1.78H50.4c0-.45-.05-2.37-.08-2.78,0-1.88,0-6,0-8Z"
     id="path111"
     style="fill:#000000" />
  <path
     class="cls-2"
     d="M111.26,103.4c-1.13,0-1.41,0-2.57,0l-.15.13c.13,2.55.18,9.83.18,11.69,0,1.14,0,2.44,0,3.92l.15.11c1.06,0,1.44,0,2.62,0h3.48c1,0,1.46,0,2,0l.15-.13c0-.81,0-1,.1-1.7l-.15-.13c-1.46.11-3,.11-4.46.13h-1.16c0-.72,0-1,0-2.22s0-6,0-7c0-1.54,0-3.11,0-4.68Z"
     id="path113"
     style="fill:#000000" />
  <path
     class="cls-2"
     d="M102.65,113l-1.46-4.66c-.5-1.59-.83-2.58-1.46-4.77l-.18-.13c-1.41,0-1.79,0-3.1,0l-.15.11c-.15.45-.73,2.35-.86,2.75-.23.76-.48,1.5-.73,2.26l-1.81,5.67c-.5,1.59-.76,2.42-1.61,4.91l.13.13c1.11,0,1.36,0,2.34,0l.18-.13c.25-1.14.35-1.5,1.06-4l.23-.76h5.24c.5,1.72.76,2.78,1.16,4.35,0,.13.08.27.1.43l.18.11c1.11,0,1.51,0,2.6-.07l.13-.11c-.1-.34-.58-1.75-.68-2C103.76,116.57,103.58,116,102.65,113Zm-7-.29,1-3.49c.38-1.25.68-2.31,1.13-3.92.43,1.43.5,1.77,1.11,3.88l1,3.52C98.74,112.72,96.52,112.72,95.64,112.7Z"
     id="path115"
     style="fill:#000000" />
  <path
     class="cls-2"
     d="M80,114.51c.58,1.88.66,2.17,1.36,4.68l.18.13c1.19,0,1.56,0,2.7,0l.15-.13c.13-.43.66-2.26.76-2.64.25-.81.48-1.64.73-2.44l1.38-4.61.83-2.71c.33-1.05.65-2.15,1-3.18l-.12-.11c-.83,0-1.19,0-2.17,0l-.18.11c-.68,2.93-.76,3.25-1.21,5l-2.32,8.33-1.94-7.12c-.58-2.13-1.06-3.94-1.54-6.25l-.15-.13c-1,.07-1.38.09-2.57.13l-.1.11c.25.78.3,1,.83,2.8.23.83.48,1.66.73,2.46Z"
     id="path117"
     style="fill:#000000" />
  <path
     class="cls-2"
     d="M105.13,132.68c0-2.43-.87-4.95-3.22-6.18a11.26,11.26,0,0,0-5.17-.93c-1.91,0-5,.12-6.82.15l-.26.23c.3,4.87.39,20.63.39,20.79,0,2.63,0,3.13-.09,6.07l.26.23c1.13,0,1.35,0,2.56,0l.26-.23c-.18-3.21-.3-8.27-.3-12.25,1.48,0,2,0,3.17,0l.43.66c1.48,2.43,3.91,6.22,5.35,8.66,1.22,2.09,1.3,2.28,1.78,3.05l.39.23c1.22-.08,1.56-.12,3.09-.12l.13-.27c-2.56-3.48-4.17-6-5.91-8.73l-2.39-3.82a9.67,9.67,0,0,0,4.13-1.89A7.12,7.12,0,0,0,105.13,132.68Zm-5.6,4.95c-.7.39-2,1-6.3,1a8.16,8.16,0,0,1-1,0c0-5.53,0-7.65,0-10.93,1.13-.08,2.43-.12,3.56-.12,2.3,0,3.74.23,4.87,1.35a5.22,5.22,0,0,1,1.3,3.83A5.44,5.44,0,0,1,99.54,137.63Z"
     id="path119"
     style="fill:#000000" />
  <path
     class="cls-2"
     d="M66.06,125.69l-.22.19c.13,2.71.17,4.95.22,5.53.09,3.75.17,12.56.17,15.61,0,.85,0,3.28-.09,5.87l.26.19c3.35-.08,4.26-.08,6.74-.08h7l.26-.23c0-.89,0-.93.13-1.74l-.26-.23c-3.17.16-5,.19-7.82.23h-3.3c-.13-4.87-.13-6.07-.17-11.28l3.56,0c2.22,0,4.43,0,6.61.08l.35-.23a9.11,9.11,0,0,1,.13-1.62l-.3-.23c-3,.08-3.35.12-6.69.12h-3.7c0-5,0-5.6-.09-10.16h2.65c1.7,0,5,0,8.35.12l.26-.23c0-.81,0-1,.13-1.7l-.26-.19c-1.3,0-4.78.08-6.52.08Z"
     id="path121"
     style="fill:#000000" />
  <path
     class="cls-2"
     d="M158.2,20.45V0H155q-1.68,9.54-12.23,17.09-12.56,9-30.12,9.88A59,59,0,0,1,123,0h-18Q93.62,15.51,93.61,36.08q0,16.78,8.75,26.46t23.82,9.68q15.42,0,32-8.63V52.14q-13.53,7.47-25.45,7.49Q112,59.63,112,35.29q23.42,0,41.45-11.5C155.16,22.7,156.73,21.59,158.2,20.45Z"
     id="path123"
     style="fill:#000000" />
  <path
     class="cls-2"
     d="M44.05,131.75c-2-3.79-2.17-4.21-3.09-5.91l-.35-.19c-1.7.08-2,.08-3.61.08l-.26.23c.26,6.57.35,13.1.35,19.67,0,2.4,0,4.83,0,7.23l.26.23a19,19,0,0,1,2.13-.08l.26-.23c0-1.28-.09-2.47-.17-5.37q-.06-4-.13-8l-.17-11.52,9.69,18.74c.87,1.74,2.26,4.52,3.17,6.26l.3.19C54,153,54.61,153,56.13,153l.26-.23c-.26-6.84-.39-13.72-.39-20.6,0-1.78,0-3.55,0-5.33a6.41,6.41,0,0,0,0-.93l-.26-.23c-.78,0-1.09.08-2.17.08l-.26.23c.22,4.41.35,8.81.35,13.21L54,151l-7.35-14.22C45.79,135.08,44.88,133.41,44.05,131.75Z"
     id="path125"
     style="fill:#000000" />
  <path
     class="cls-2"
     d="M72.83,105.26l.15-.13c0-.65,0-.92.1-1.59l-.15-.13c-2,.07-3.5.07-8.62,0l-.13.13c.05,1.08.08,1.61.13,3.54,0,2.17.08,6,.08,7.88,0,2.13,0,3.38-.05,4.21l.13.11c1.08,0,2.14,0,4.54,0h4l.15-.13c.05-.81.05-.87.13-1.66l-.15-.13c-1.39.07-2.47.09-4.54.11H67.06c0-2.55,0-2.6-.07-5.56h1.69c1.66,0,2.52,0,3.75,0l.18-.13c0-.63,0-.81.1-1.52l-.15-.13c-.88,0-1.56,0-3.88.07H67c0-2.2,0-2.8,0-5h1.29C70.06,105.21,70.34,105.21,72.83,105.26Z"
     id="path127"
     style="fill:#000000" />
  <path
     class="cls-2"
     d="M35.08,103.42l-4.66,0-.13.13c.05,1,.1,2,.13,3.43,0,1.77.07,7.12.07,8.58,0,1.7,0,2.46,0,3.58l.15.13c1.46,0,1.64,0,3.2,0,2.6,0,5.72,0,7.61-3.07a9.83,9.83,0,0,0,1.29-5.31C42.69,103.42,37.4,103.42,35.08,103.42Zm2.77,13.28a5.17,5.17,0,0,1-3.1.78H33.19c0-.45-.05-2.37-.08-2.78,0-1.88,0-6,0-8v-1.5l1.69,0a6.5,6.5,0,0,1,2.95.45c1.49.74,2.22,2.37,2.22,5.15C39.95,112.56,39.72,115.41,37.86,116.71Z"
     id="path129"
     style="fill:#000000" />
</svg>
